# xmcd CD database file
#
# Track frame offsets:
#	150
#	26475
#	53274
#	78637
#	111635
#	141937
#	166861
#	189842
#
# Disc length: 2809 seconds
#
# Revision: 0
# Processed by: cddbd v1.5.2PL0 Copyright (c) Steve Scherf et al.
# Submitted via: CDex 1.51
#
DISCID=600af708
DTITLE=Midori - A Promise Of Enchantment
DYEAR=2011
DGENRE=New Age
TTITLE0=Far Away Land
TTITLE1=Whispering Light
TTITLE2=Spell Caster
TTITLE3=Spirit Echoes
TTITLE4=Shadow Dance
TTITLE5=Forest Of The Disappeared
TTITLE6=Maiden
TTITLE7=Hero's Return
EXTD=YEAR: 2011
EXTT0=
EXTT1=
EXTT2=
EXTT3=
EXTT4=
EXTT5=
EXTT6=
EXTT7=
PLAYORDER=
